<?xml version="1.0" encoding="UTF-8" standalone="yes"?>
<svg xmlns="http://www.w3.org/2000/svg" width="204" height="117" style="">
<path style="fill:#ffffff; stroke:none;" d="M0 0L0 117L204 117L204 0L0 0z"/>
<path style="fill:#cccccc; stroke:none;" d="M116 22L117 23L116 22z"/>
<path style="fill:#1c1c1c; stroke:none;" d="M115 24L116 25L115 24z"/>
<path style="fill:#cccccc; stroke:none;" d="M114 25L115 26L114 25z"/>
<path style="fill:#151515; stroke:none;" d="M114 26L115 27L114 26z"/>
<path style="fill:#393939; stroke:none;" d="M113 28L114 29L113 28z"/>
<path style="fill:#9e9e9e; stroke:none;" d="M112 29L112 33C112.71 31.2405 112.71 30.7595 112 29z"/>
<path style="fill:#020202; stroke:none;" d="M112 42L113 43L112 42z"/>
<path style="fill:#121212; stroke:none;" d="M112 44L113 45L112 44z"/>
<path style="fill:#cdcdcd; stroke:none;" d="M121 45L121 48C121.696 46.4463 121.696 46.5537 121 45z"/>
<path style="fill:#b5b5b5; stroke:none;" d="M99 108L100 109L99 108z"/>
</svg>